Normalized EMG Linear Envelopes
nRows=32
nColumns=17

endheader
time	        VM	        VL	        RF	       GRA	        TA	   ADDLONG	   SEMIMEM	      BFLH	        GM	        GL	       TFL	   GLUTMAX	   GLUTMED	      PIRI	    OBTINT	        QF	
1.94	  0.433321	  0.657082	  0.173347	  0.462614	  0.152121	  0.263977	  0.350046	  0.221991	  0.180313	  0.239373	  0.150273	  0.074513	  0.159342	  0.272717	  0.655608	  0.255680	
1.9405	  0.430825	  0.652561	  0.174668	  0.467059	  0.152669	  0.265636	  0.352991	  0.223596	  0.181862	  0.239646	  0.150207	  0.072694	  0.158337	  0.269583	  0.653078	  0.253605	
1.941	  0.428315	  0.647990	  0.175996	  0.471516	  0.153237	  0.267300	  0.355895	  0.225193	  0.183420	  0.239898	  0.150175	  0.070903	  0.157329	  0.266455	  0.650475	  0.251569	
1.9415	  0.425788	  0.643370	  0.177330	  0.475985	  0.153825	  0.268967	  0.358757	  0.226780	  0.184987	  0.240126	  0.150178	  0.069141	  0.156318	  0.263335	  0.647801	  0.249572	
1.942	  0.423243	  0.638704	  0.178670	  0.480463	  0.154435	  0.270638	  0.361574	  0.228357	  0.186563	  0.240329	  0.150216	  0.067407	  0.155305	  0.260225	  0.645057	  0.247613	
1.9425	  0.420679	  0.633993	  0.180015	  0.484947	  0.155066	  0.272311	  0.364343	  0.229922	  0.188146	  0.240508	  0.150289	  0.065700	  0.154290	  0.257125	  0.642242	  0.245692	
1.943	  0.418094	  0.629239	  0.181365	  0.489436	  0.155721	  0.273986	  0.367063	  0.231472	  0.189736	  0.240662	  0.150399	  0.064022	  0.153274	  0.254038	  0.639358	  0.243806	
1.9435	  0.415487	  0.624442	  0.182721	  0.493927	  0.156399	  0.275662	  0.369731	  0.233006	  0.191333	  0.240789	  0.150546	  0.062372	  0.152258	  0.250965	  0.636405	  0.241955	
1.944	  0.412856	  0.619605	  0.184080	  0.498417	  0.157102	  0.277338	  0.372345	  0.234524	  0.192935	  0.240891	  0.150729	  0.060750	  0.151242	  0.247906	  0.633384	  0.240138	
1.9445	  0.410200	  0.614729	  0.185443	  0.502904	  0.157829	  0.279013	  0.374903	  0.236024	  0.194543	  0.240968	  0.150950	  0.059155	  0.150226	  0.244864	  0.630296	  0.238355	
1.945	  0.407517	  0.609816	  0.186809	  0.507386	  0.158582	  0.280687	  0.377403	  0.237503	  0.196155	  0.241018	  0.151209	  0.057589	  0.149212	  0.241839	  0.627144	  0.236603	
1.9455	  0.404806	  0.604868	  0.188177	  0.511859	  0.159362	  0.282358	  0.379844	  0.238962	  0.197772	  0.241044	  0.151506	  0.056050	  0.148199	  0.238833	  0.623929	  0.234882	
1.946	  0.402065	  0.599888	  0.189547	  0.516322	  0.160168	  0.284026	  0.382223	  0.240398	  0.199394	  0.241044	  0.151842	  0.054538	  0.147189	  0.235846	  0.620653	  0.233191	
1.9465	  0.399294	  0.594878	  0.190918	  0.520772	  0.161002	  0.285689	  0.384539	  0.241810	  0.201019	  0.241019	  0.152217	  0.053055	  0.146182	  0.232881	  0.617320	  0.231528	
1.947	  0.396490	  0.589839	  0.192289	  0.525206	  0.161865	  0.287346	  0.386790	  0.243197	  0.202647	  0.240971	  0.152630	  0.051599	  0.145178	  0.229938	  0.613932	  0.229892	
1.9475	  0.393654	  0.584775	  0.193660	  0.529622	  0.162756	  0.288996	  0.388975	  0.244557	  0.204278	  0.240899	  0.153083	  0.050170	  0.144178	  0.227017	  0.610491	  0.228282	
1.948	  0.390783	  0.579686	  0.195030	  0.534017	  0.163677	  0.290639	  0.391094	  0.245889	  0.205913	  0.240805	  0.153574	  0.048769	  0.143182	  0.224121	  0.607002	  0.226696	
1.9485	  0.387878	  0.574576	  0.196397	  0.538388	  0.164629	  0.292272	  0.393145	  0.247192	  0.207549	  0.240690	  0.154106	  0.047394	  0.142192	  0.221250	  0.603466	  0.225134	
1.949	  0.384939	  0.569446	  0.197761	  0.542734	  0.165612	  0.293895	  0.395127	  0.248464	  0.209188	  0.240557	  0.154676	  0.046047	  0.141206	  0.218405	  0.599886	  0.223593	
1.9495	  0.381964	  0.564297	  0.199122	  0.547053	  0.166626	  0.295506	  0.397041	  0.249705	  0.210829	  0.240406	  0.155286	  0.044726	  0.140227	  0.215587	  0.596265	  0.222073	
1.95	  0.378953	  0.559133	  0.200479	  0.551342	  0.167673	  0.297103	  0.398886	  0.250912	  0.212472	  0.240238	  0.155936	  0.043433	  0.139253	  0.212797	  0.592604	  0.220573	
1.9505	  0.375907	  0.553955	  0.201830	  0.555601	  0.168753	  0.298686	  0.400661	  0.252086	  0.214117	  0.240056	  0.156624	  0.042165	  0.138286	  0.210035	  0.588907	  0.219091	
1.951	  0.372824	  0.548766	  0.203174	  0.559827	  0.169865	  0.300252	  0.402367	  0.253223	  0.215763	  0.239861	  0.157352	  0.040925	  0.137325	  0.207302	  0.585176	  0.217626	
1.9515	  0.369705	  0.543567	  0.204512	  0.564019	  0.171012	  0.301800	  0.404005	  0.254324	  0.217409	  0.239654	  0.158119	  0.039710	  0.136371	  0.204599	  0.581412	  0.216179	
1.952	  0.366549	  0.538362	  0.205842	  0.568176	  0.172192	  0.303328	  0.405575	  0.255387	  0.219057	  0.239436	  0.158924	  0.038521	  0.135425	  0.201927	  0.577619	  0.214747	
1.9525	  0.363356	  0.533153	  0.207163	  0.572296	  0.173407	  0.304835	  0.407078	  0.256410	  0.220705	  0.239209	  0.159768	  0.037359	  0.134487	  0.199287	  0.573799	  0.213330	
1.953	  0.360126	  0.527941	  0.208473	  0.576377	  0.174657	  0.306319	  0.408516	  0.257392	  0.222353	  0.238975	  0.160650	  0.036221	  0.133556	  0.196678	  0.569954	  0.211929	
1.9535	  0.356861	  0.522730	  0.209773	  0.580418	  0.175941	  0.307778	  0.409891	  0.258333	  0.224002	  0.238734	  0.161570	  0.035110	  0.132634	  0.194102	  0.566088	  0.210541	
1.954	  0.353561	  0.517522	  0.211060	  0.584418	  0.177261	  0.309211	  0.411204	  0.259233	  0.225651	  0.238487	  0.162527	  0.034023	  0.131720	  0.191559	  0.562203	  0.209166	
1.9545	  0.350226	  0.512318	  0.212334	  0.588376	  0.178616	  0.310616	  0.412457	  0.260091	  0.227300	  0.238237	  0.163521	  0.032961	  0.130815	  0.189050	  0.558302	  0.207805	
1.955	  0.346860	  0.507121	  0.213593	  0.592290	  0.180006	  0.311991	  0.413652	  0.260906	  0.228948	  0.237984	  0.164552	  0.031925	  0.129919	  0.186575	  0.554388	  0.206455	
1.9555	  0.343462	  0.501932	  0.214835	  0.596160	  0.181431	  0.313334	  0.414792	  0.261679	  0.230597	  0.237728	  0.165619	  0.030912	  0.129032	  0.184137	  0.550463	  0.205116	
